<svg viewBox="0 0 128 128" xmlns="http://www.w3.org/2000/svg" fill-rule="evenodd" clip-rule="evenodd" stroke-linejoin="round" stroke-miterlimit="1.414"><g fill="#fff" fill-rule="nonzero"><path d="M114.378 122.128c0-.917.743-1.662 1.66-1.662a1.661 1.661 0 010 3.322 1.66 1.66 0 01-1.66-1.66zM88.36 122.128c0-.917.744-1.662 1.66-1.662a1.661 1.661 0 11-1.66 1.662zM62.34 122.128a1.662 1.662 0 113.324 0 1.662 1.662 0 01-3.324 0zM36.322 122.128a1.661 1.661 0 113.322 0 1.661 1.661 0 01-3.322 0zM10.303 122.128a1.661 1.661 0 113.322 0 1.661 1.661 0 01-3.322 0zM114.378 98.878a1.66 1.66 0 113.32-.004 1.66 1.66 0 01-3.32.004zM88.36 98.878a1.662 1.662 0 113.322 0 1.662 1.662 0 01-3.323 0zM62.34 98.878a1.66 1.66 0 113.321-.003 1.66 1.66 0 01-3.32.003zM36.322 98.878a1.66 1.66 0 113.321 0 1.66 1.66 0 01-3.321 0zM10.303 98.878a1.66 1.66 0 113.32-.004 1.66 1.66 0 01-3.32.004zM114.378 75.625a1.66 1.66 0 113.32 0c0 .917-.743 1.662-1.66 1.662-.917 0-1.66-.745-1.66-1.662zM88.36 75.625a1.661 1.661 0 113.322.003 1.661 1.661 0 01-3.323-.003zM62.34 75.625a1.66 1.66 0 113.32 0 1.66 1.66 0 01-3.32 0zM36.322 75.625a1.66 1.66 0 113.323 0 1.66 1.66 0 01-3.323 0zM10.303 75.625a1.661 1.661 0 113.32.003 1.661 1.661 0 01-3.32-.003zM114.378 52.375a1.66 1.66 0 113.319-.001 1.66 1.66 0 01-3.319 0zM88.36 52.375a1.661 1.661 0 013.32 0 1.661 1.661 0 01-3.322 0zM62.34 52.375a1.66 1.66 0 113.32 0 1.66 1.66 0 01-3.32 0zM36.322 52.375a1.66 1.66 0 113.323 0 1.66 1.66 0 01-3.323 0zM10.303 52.375a1.661 1.661 0 013.322 0 1.661 1.661 0 01-3.322 0zM114.378 29.124c0-.917.743-1.662 1.66-1.662a1.661 1.661 0 010 3.322 1.66 1.66 0 01-1.66-1.66zM88.36 29.124c0-.917.744-1.662 1.66-1.662a1.661 1.661 0 11-1.66 1.662zM62.34 29.124a1.662 1.662 0 113.324 0 1.662 1.662 0 01-3.324 0zM36.322 29.124a1.661 1.661 0 113.322-.001 1.661 1.661 0 01-3.322 0zM10.303 29.124a1.661 1.661 0 113.322-.001 1.661 1.661 0 01-3.322 0zM114.378 5.871a1.66 1.66 0 113.32 0 1.66 1.66 0 11-3.32 0zM88.36 5.871a1.661 1.661 0 113.322.003 1.661 1.661 0 01-3.323-.003zM62.34 5.871a1.66 1.66 0 013.322 0 1.66 1.66 0 11-3.322 0zM36.322 5.871a1.66 1.66 0 111.66 1.662 1.66 1.66 0 01-1.66-1.662zM10.303 5.871a1.661 1.661 0 113.32.003 1.661 1.661 0 01-3.32-.003z"/></g></svg>