<?xml version="1.0" encoding="UTF-8" standalone="no"?>
<!DOCTYPE svg PUBLIC "-//W3C//DTD SVG 1.1//EN" "http://www.w3.org/Graphics/SVG/1.1/DTD/svg11.dtd">
<svg width="100%" height="100%" viewBox="0 0 128 128" version="1.1" xmlns="http://www.w3.org/2000/svg" xmlns:xlink="http://www.w3.org/1999/xlink" xml:space="preserve" xmlns:serif="http://www.serif.com/" style="fill-rule:evenodd;clip-rule:evenodd;stroke-linejoin:round;stroke-miterlimit:1.41421;">
    <g transform="matrix(1.95498,0,0,1.95498,-890.339,-678.788)">
        <path d="M513.927,409.68C513.927,409.211 514.307,408.83 514.776,408.83C515.245,408.83 515.625,409.211 515.625,409.68C515.625,410.149 515.245,410.529 514.776,410.529C514.307,410.529 513.927,410.149 513.927,409.68Z" style="fill:white;fill-rule:nonzero;"/>
        <path d="M500.618,409.68C500.618,409.211 500.999,408.83 501.468,408.83C501.937,408.83 502.317,409.211 502.317,409.68C502.317,410.149 501.937,410.529 501.468,410.529C500.999,410.529 500.618,410.149 500.618,409.68Z" style="fill:white;fill-rule:nonzero;"/>
        <path d="M487.309,409.68C487.309,409.211 487.689,408.83 488.159,408.83C488.628,408.83 489.008,409.211 489.008,409.68C489.008,410.149 488.628,410.529 488.159,410.529C487.689,410.529 487.309,410.149 487.309,409.68Z" style="fill:white;fill-rule:nonzero;"/>
        <path d="M474,409.68C474,409.211 474.38,408.83 474.849,408.83C475.319,408.83 475.699,409.211 475.699,409.68C475.699,410.149 475.319,410.529 474.849,410.529C474.38,410.529 474,410.149 474,409.68Z" style="fill:white;fill-rule:nonzero;"/>
        <path d="M460.691,409.68C460.691,409.211 461.071,408.83 461.54,408.83C462.009,408.83 462.39,409.211 462.39,409.68C462.39,410.149 462.009,410.529 461.54,410.529C461.071,410.529 460.691,410.149 460.691,409.68Z" style="fill:white;fill-rule:nonzero;"/>
        <path d="M513.927,397.787C513.927,397.317 514.307,396.937 514.776,396.937C515.245,396.937 515.625,397.317 515.625,397.787C515.625,398.256 515.245,398.636 514.776,398.636C514.307,398.636 513.927,398.256 513.927,397.787Z" style="fill:white;fill-rule:nonzero;"/>
        <path d="M500.618,397.787C500.618,397.317 500.999,396.937 501.468,396.937C501.937,396.937 502.317,397.317 502.317,397.787C502.317,398.256 501.937,398.636 501.468,398.636C500.999,398.636 500.618,398.256 500.618,397.787Z" style="fill:white;fill-rule:nonzero;"/>
        <path d="M487.309,397.787C487.309,397.317 487.689,396.937 488.159,396.937C488.628,396.937 489.008,397.317 489.008,397.787C489.008,398.256 488.628,398.636 488.159,398.636C487.689,398.636 487.309,398.256 487.309,397.787Z" style="fill:white;fill-rule:nonzero;"/>
        <path d="M474,397.787C474,397.317 474.38,396.937 474.849,396.937C475.319,396.937 475.699,397.317 475.699,397.787C475.699,398.256 475.319,398.636 474.849,398.636C474.38,398.636 474,398.256 474,397.787Z" style="fill:white;fill-rule:nonzero;"/>
        <path d="M460.691,397.787C460.691,397.317 461.071,396.937 461.54,396.937C462.009,396.937 462.39,397.317 462.39,397.787C462.39,398.256 462.009,398.636 461.54,398.636C461.071,398.636 460.691,398.256 460.691,397.787Z" style="fill:white;fill-rule:nonzero;"/>
        <path d="M513.927,385.893C513.927,385.424 514.307,385.044 514.776,385.044C515.245,385.044 515.625,385.424 515.625,385.893C515.625,386.362 515.245,386.743 514.776,386.743C514.307,386.743 513.927,386.362 513.927,385.893Z" style="fill:white;fill-rule:nonzero;"/>
        <path d="M500.618,385.893C500.618,385.424 500.999,385.044 501.468,385.044C501.937,385.044 502.317,385.424 502.317,385.893C502.317,386.362 501.937,386.743 501.468,386.743C500.999,386.743 500.618,386.362 500.618,385.893Z" style="fill:white;fill-rule:nonzero;"/>
        <path d="M487.309,385.893C487.309,385.424 487.689,385.044 488.159,385.044C488.628,385.044 489.008,385.424 489.008,385.893C489.008,386.362 488.628,386.743 488.159,386.743C487.689,386.743 487.309,386.362 487.309,385.893Z" style="fill:white;fill-rule:nonzero;"/>
        <path d="M474,385.893C474,385.424 474.38,385.044 474.849,385.044C475.319,385.044 475.699,385.424 475.699,385.893C475.699,386.362 475.319,386.743 474.849,386.743C474.38,386.743 474,386.362 474,385.893Z" style="fill:white;fill-rule:nonzero;"/>
        <path d="M460.691,385.893C460.691,385.424 461.071,385.044 461.54,385.044C462.009,385.044 462.39,385.424 462.39,385.893C462.39,386.362 462.009,386.743 461.54,386.743C461.071,386.743 460.691,386.362 460.691,385.893Z" style="fill:white;fill-rule:nonzero;"/>
        <path d="M513.927,374C513.927,373.531 514.307,373.151 514.776,373.151C515.245,373.151 515.625,373.531 515.625,374C515.625,374.469 515.245,374.849 514.776,374.849C514.307,374.849 513.927,374.469 513.927,374Z" style="fill:white;fill-rule:nonzero;"/>
        <path d="M500.618,374C500.618,373.531 500.999,373.151 501.468,373.151C501.937,373.151 502.317,373.531 502.317,374C502.317,374.469 501.937,374.849 501.468,374.849C500.999,374.849 500.618,374.469 500.618,374Z" style="fill:white;fill-rule:nonzero;"/>
        <path d="M487.309,374C487.309,373.531 487.689,373.151 488.159,373.151C488.628,373.151 489.008,373.531 489.008,374C489.008,374.469 488.628,374.849 488.159,374.849C487.689,374.849 487.309,374.469 487.309,374Z" style="fill:white;fill-rule:nonzero;"/>
        <path d="M474,374C474,373.531 474.38,373.151 474.849,373.151C475.319,373.151 475.699,373.531 475.699,374C475.699,374.469 475.319,374.849 474.849,374.849C474.38,374.849 474,374.469 474,374Z" style="fill:white;fill-rule:nonzero;"/>
        <path d="M460.691,374C460.691,373.531 461.071,373.151 461.54,373.151C462.009,373.151 462.39,373.531 462.39,374C462.39,374.469 462.009,374.849 461.54,374.849C461.071,374.849 460.691,374.469 460.691,374Z" style="fill:white;fill-rule:nonzero;"/>
        <path d="M513.927,362.107C513.927,361.638 514.307,361.257 514.776,361.257C515.245,361.257 515.625,361.638 515.625,362.107C515.625,362.576 515.245,362.956 514.776,362.956C514.307,362.956 513.927,362.576 513.927,362.107Z" style="fill:white;fill-rule:nonzero;"/>
        <path d="M500.618,362.107C500.618,361.638 500.999,361.257 501.468,361.257C501.937,361.257 502.317,361.638 502.317,362.107C502.317,362.576 501.937,362.956 501.468,362.956C500.999,362.956 500.618,362.576 500.618,362.107Z" style="fill:white;fill-rule:nonzero;"/>
        <path d="M487.309,362.107C487.309,361.638 487.689,361.257 488.159,361.257C488.628,361.257 489.008,361.638 489.008,362.107C489.008,362.576 488.628,362.956 488.159,362.956C487.689,362.956 487.309,362.576 487.309,362.107Z" style="fill:white;fill-rule:nonzero;"/>
        <path d="M474,362.107C474,361.638 474.38,361.257 474.849,361.257C475.319,361.257 475.699,361.638 475.699,362.107C475.699,362.576 475.319,362.956 474.849,362.956C474.38,362.956 474,362.576 474,362.107Z" style="fill:white;fill-rule:nonzero;"/>
        <path d="M460.691,362.107C460.691,361.638 461.071,361.257 461.54,361.257C462.009,361.257 462.39,361.638 462.39,362.107C462.39,362.576 462.009,362.956 461.54,362.956C461.071,362.956 460.691,362.576 460.691,362.107Z" style="fill:white;fill-rule:nonzero;"/>
        <path d="M513.927,350.213C513.927,349.744 514.307,349.364 514.776,349.364C515.245,349.364 515.625,349.744 515.625,350.213C515.625,350.683 515.245,351.063 514.776,351.063C514.307,351.063 513.927,350.683 513.927,350.213Z" style="fill:white;fill-rule:nonzero;"/>
        <path d="M500.618,350.213C500.618,349.744 500.999,349.364 501.468,349.364C501.937,349.364 502.317,349.744 502.317,350.213C502.317,350.683 501.937,351.063 501.468,351.063C500.999,351.063 500.618,350.683 500.618,350.213Z" style="fill:white;fill-rule:nonzero;"/>
        <path d="M487.309,350.213C487.309,349.744 487.689,349.364 488.159,349.364C488.628,349.364 489.008,349.744 489.008,350.213C489.008,350.683 488.628,351.063 488.159,351.063C487.689,351.063 487.309,350.683 487.309,350.213Z" style="fill:white;fill-rule:nonzero;"/>
        <path d="M474,350.213C474,349.744 474.38,349.364 474.849,349.364C475.319,349.364 475.699,349.744 475.699,350.213C475.699,350.683 475.319,351.063 474.849,351.063C474.38,351.063 474,350.683 474,350.213Z" style="fill:white;fill-rule:nonzero;"/>
        <path d="M460.691,350.213C460.691,349.744 461.071,349.364 461.54,349.364C462.009,349.364 462.39,349.744 462.39,350.213C462.39,350.683 462.009,351.063 461.54,351.063C461.071,351.063 460.691,350.683 460.691,350.213Z" style="fill:white;fill-rule:nonzero;"/>
    </g>
</svg>
