<?xml version="1.0" encoding="UTF-8" standalone="no"?>
<!DOCTYPE svg PUBLIC "-//W3C//DTD SVG 1.1//EN" "http://www.w3.org/Graphics/SVG/1.1/DTD/svg11.dtd">
<svg width="100%" height="100%" viewBox="0 0 128 128" version="1.1" xmlns="http://www.w3.org/2000/svg" xmlns:xlink="http://www.w3.org/1999/xlink" xml:space="preserve" xmlns:serif="http://www.serif.com/" style="fill-rule:evenodd;clip-rule:evenodd;stroke-linecap:round;stroke-linejoin:round;stroke-miterlimit:1.41421;">
    <g transform="matrix(1.45681,0,0,1.48219,-323.269,-589.893)">
        <g transform="matrix(1,0,0,1,-1.77065,-0.829359)">
            <path d="M304.583,451.417C304.583,467.157 291.823,479.917 276.083,479.917C260.342,479.917 247.583,467.157 247.583,451.417C247.583,435.677 260.342,422.917 276.083,422.917C291.823,422.917 304.583,435.677 304.583,451.417Z" style="fill:rgb(255,152,149);fill-rule:nonzero;"/>
        </g>
        <g transform="matrix(1,0,0,1,0.245777,-0.96625)">
            <path d="M279.583,441.167C279.583,448.761 273.427,454.917 265.833,454.917C258.239,454.917 252.083,448.761 252.083,441.167C252.083,433.573 258.239,427.417 265.833,427.417C273.427,427.417 279.583,433.573 279.583,441.167Z" style="fill:none;stroke:white;stroke-width:2.04px;"/>
        </g>
    </g>
    <g transform="matrix(1.45681,0,0,1.48219,-323.269,-589.893)">
        <path d="M294.333,441.167C294.333,456.907 281.573,469.667 265.833,469.667C250.093,469.667 237.333,456.907 237.333,441.167C237.333,425.427 250.093,412.667 265.833,412.667C281.573,412.667 294.333,425.427 294.333,441.167Z" style="fill:none;stroke:white;stroke-width:2.04px;"/>
    </g>
</svg>
