<svg viewBox="0 0 128 128" xmlns="http://www.w3.org/2000/svg" fill-rule="evenodd" clip-rule="evenodd" stroke-linecap="round" stroke-linejoin="round" stroke-miterlimit="1.414"><path d="M117.871 77.963c0 23.33-18.589 42.243-41.519 42.243-22.932 0-41.52-18.913-41.52-42.243 0-23.33 18.588-42.242 41.52-42.242 22.93 0 41.52 18.913 41.52 42.242z" fill="rgb(100,255,143)" fill-rule="nonzero"/><path d="M279.583 441.167c0 7.594-6.156 13.75-13.75 13.75s-13.75-6.156-13.75-13.75 6.156-13.75 13.75-13.75 13.75 6.156 13.75 13.75z" fill="none" stroke="#fff" stroke-width="2.04" transform="matrix(1.45681 0 0 1.48219 -322.91 -591.325)"/><g><path d="M294.333 441.167c0 15.74-12.76 28.5-28.5 28.5s-28.5-12.76-28.5-28.5 12.76-28.5 28.5-28.5 28.5 12.76 28.5 28.5z" fill="none" stroke="#fff" stroke-width="2.04" transform="matrix(1.45681 0 0 1.48219 -323.269 -589.893)"/></g></svg>