<svg viewBox="0 0 128 128" xmlns="http://www.w3.org/2000/svg" fill-rule="evenodd" clip-rule="evenodd" stroke-linejoin="round" stroke-miterlimit="1.414"><path d="M64 82.648c-8.809 0-15.97-7.419-15.97-16.544 0-9.115 7.161-16.545 15.97-16.545 8.798 0 15.97 7.43 15.97 16.545 0 9.125-7.172 16.544-15.97 16.544m0-41.774c-13.43 0-24.354 11.316-24.354 25.23 0 13.913 10.923 25.23 24.354 25.23 13.43 0 24.354-11.317 24.354-25.23 0-13.914-10.923-25.23-24.354-25.23" fill="#fff" fill-rule="nonzero"/><path d="M102.869 88.042c0 10.105-7.937 18.328-17.702 18.328H42.823c-9.754 0-17.692-8.223-17.692-18.328V44.176c0-10.116 7.938-18.339 17.692-18.339h42.344c9.765 0 17.702 8.223 17.702 18.34v43.865zm-17.702-70.89H42.823c-14.387 0-26.075 12.12-26.075 27.024v43.866c0 14.904 11.688 27.013 26.075 27.013h42.344c14.387 0 26.086-12.109 26.086-27.013V44.176c0-14.904-11.7-27.024-26.086-27.024" fill="#fff" fill-rule="nonzero"/><path d="M89.369 33.509a6.075 6.075 0 00-4.335 1.86c-1.159 1.178-1.807 2.84-1.807 4.513s.648 3.313 1.807 4.502a6.013 6.013 0 004.335 1.86 6.055 6.055 0 004.346-1.86c1.158-1.189 1.806-2.84 1.806-4.502 0-1.673-.648-3.335-1.806-4.513a6.1 6.1 0 00-4.346-1.86" fill="#fff" fill-rule="nonzero"/></svg>