<?xml version="1.0" encoding="UTF-8" standalone="no"?>
<!DOCTYPE svg PUBLIC "-//W3C//DTD SVG 1.1//EN" "http://www.w3.org/Graphics/SVG/1.1/DTD/svg11.dtd">
<svg width="100%" height="100%" viewBox="0 0 128 128" version="1.1" xmlns="http://www.w3.org/2000/svg" xmlns:xlink="http://www.w3.org/1999/xlink" xml:space="preserve" xmlns:serif="http://www.serif.com/" style="fill-rule:evenodd;clip-rule:evenodd;stroke-linejoin:round;stroke-miterlimit:1.41421;">
    <g transform="matrix(10.6257,0,0,11.0077,64,49.559)">
        <path d="M0,3.006C-0.829,3.006 -1.503,2.332 -1.503,1.503C-1.503,0.675 -0.829,0 0,0C0.828,0 1.503,0.675 1.503,1.503C1.503,2.332 0.828,3.006 0,3.006M0,-0.789C-1.264,-0.789 -2.292,0.239 -2.292,1.503C-2.292,2.767 -1.264,3.795 0,3.795C1.264,3.795 2.292,2.767 2.292,1.503C2.292,0.239 1.264,-0.789 0,-0.789" style="fill:white;fill-rule:nonzero;"/>
    </g>
    <g transform="matrix(10.6257,0,0,11.0077,102.869,44.1652)">
        <path d="M0,3.986C0,4.904 -0.747,5.651 -1.666,5.651L-5.651,5.651C-6.569,5.651 -7.316,4.904 -7.316,3.986L-7.316,0.001C-7.316,-0.918 -6.569,-1.665 -5.651,-1.665L-1.666,-1.665C-0.747,-1.665 0,-0.918 0,0.001L0,3.986ZM-1.666,-2.454L-5.651,-2.454C-7.005,-2.454 -8.105,-1.353 -8.105,0.001L-8.105,3.986C-8.105,5.34 -7.005,6.44 -5.651,6.44L-1.666,6.44C-0.312,6.44 0.789,5.34 0.789,3.986L0.789,0.001C0.789,-1.353 -0.312,-2.454 -1.666,-2.454" style="fill:white;fill-rule:nonzero;"/>
    </g>
    <g transform="matrix(10.6257,0,0,11.0077,89.3688,46.2446)">
        <path d="M0,-1.157C-0.152,-1.157 -0.301,-1.095 -0.408,-0.988C-0.517,-0.881 -0.578,-0.73 -0.578,-0.578C-0.578,-0.426 -0.517,-0.277 -0.408,-0.169C-0.302,-0.061 -0.152,0 0,0C0.152,0 0.302,-0.061 0.409,-0.169C0.518,-0.277 0.579,-0.427 0.579,-0.578C0.579,-0.73 0.518,-0.881 0.409,-0.988C0.302,-1.095 0.152,-1.157 0,-1.157" style="fill:white;fill-rule:nonzero;"/>
    </g>
</svg>
