<?xml version="1.0" encoding="UTF-8" standalone="no"?>
<!DOCTYPE svg PUBLIC "-//W3C//DTD SVG 1.1//EN" "http://www.w3.org/Graphics/SVG/1.1/DTD/svg11.dtd">
<svg width="100%" height="100%" viewBox="0 0 1920 1080" version="1.1" xmlns="http://www.w3.org/2000/svg" xmlns:xlink="http://www.w3.org/1999/xlink" xml:space="preserve" xmlns:serif="http://www.serif.com/" style="fill-rule:evenodd;clip-rule:evenodd;stroke-linejoin:round;stroke-miterlimit:1.41421;">
    <g transform="matrix(1,0,0,1,-1,0)">
        <rect x="0" y="0" width="1920" height="1080" style="fill:rgb(0,0,0,0);"/>
    </g>
    <g transform="matrix(1,0,0,1,-217.408,91.8858)">
        <rect x="560.632" y="226.418" width="80.556" height="428.723" style="fill:rgb(0,255,201);"/>
    </g>
    <g transform="matrix(1.12784,0,0,1,-368.002,-24.1698)">
        <rect x="774.994" y="342.473" width="120.152" height="428.723" style="fill:rgb(0,255,201);"/>
    </g>
    <g transform="matrix(-1.00645,0,0,1,1872.06,-24.1698)">
        <path d="M1237.85,342.473C1120.97,342.473 1026.22,438.446 1026.22,556.835C1026.22,675.224 1120.97,771.196 1237.85,771.196L1237.85,556.835L1237.85,342.473Z" style="fill:rgb(0,255,201);"/>
    </g>
    <g transform="matrix(0.705208,0.709,-1.06222,1.05654,312.239,-776.379)">
        <rect x="1042.6" y="264.648" width="76.46" height="275.352" style="fill:rgb(0,0,0,0);"/>
    </g>
    <g transform="matrix(-0.687847,0.725855,-1.08747,-1.03053,1844.17,298.01)">
        <rect x="1042.6" y="264.648" width="76.46" height="275.352" style="fill:rgb(0,0,0,0);"/>
    </g>
    <g transform="matrix(1.1599,0,0,1.1599,258.68,208.649)">
        <text x="523.801px" y="234.158px" style="font-family:'UniSansHeavyItalicCAPS', 'Uni Sans';font-weight:900;font-style:italic;font-size:187.513px;fill:rgb(0,255,201);">DEV<tspan x="873.701px " y="234.158px ">S</tspan></text>
        <text x="523.801px" y="459.174px" style="font-family:'UniSansHeavyItalicCAPS', 'Uni Sans';font-weight:900;font-style:italic;font-size:187.513px;fill:rgb(0,255,201);">KY<tspan x="747.317px 868.45px " y="459.174px 459.174px ">AB</tspan>IN</text>
    </g>
    <g transform="matrix(0.407015,0,0,0.308313,622.35,379.957)">
        <rect x="869.078" y="505.523" width="697.517" height="27.142" style="fill:white;"/>
    </g>
    <g transform="matrix(0.423341,0,0,0.423341,545.327,321.082)">
        <text x="1721.27px" y="544.184px" style="font-family:'UniSansHeavyItalicCAPS', 'Uni Sans';font-weight:900;font-style:italic;font-size:76.45px;fill:rgb(0,255,201);">.<tspan x="1740.08px " y="544.184px ">c</tspan>om</text>
    </g>
</svg>
