<?xml version="1.0" encoding="utf-8"?>
<!-- Generator: Adobe Illustrator 25.2.1, SVG Export Plug-In . SVG Version: 6.00 Build 0)  -->
<svg version="1.1" id="Layer_1" xmlns="http://www.w3.org/2000/svg" xmlns:xlink="http://www.w3.org/1999/xlink" x="0px" y="0px"
	 viewBox="0 0 1017.9 563.9" style="enable-background:new 0 0 1017.9 563.9;" xml:space="preserve">
<style type="text/css">
	.st0{fill:none;stroke:#DED8D5;stroke-width:0.63;stroke-miterlimit:10;}
	.st1{fill:#FFB1A5;}
	.st2{fill:#EAD254;}
	.st3{fill:#00857B;}
	.st4{fill:#64FF8F;}
</style>
<path class="st0" d="M0.3,78.5h1017.6"/>
<path class="st1" d="M57,39.1c0,4.6-4,8.3-9,8.3s-9-3.7-9-8.3s4-8.3,9-8.3S57,34.5,57,39.1"/>
<path class="st2" d="M92.1,39.1c0,4.6-4,8.3-9,8.3s-9-3.7-9-8.3s4.1-8.3,9-8.3S92.1,34.5,92.1,39.1"/>
<path class="st3" d="M127.2,39.1c0,4.6-4,8.3-9,8.3s-9-3.7-9-8.3s4-8.3,9-8.3S127.2,34.5,127.2,39.1"/>
<path class="st4" d="M192.6,44.4H146c-2,0-3.6-2.4-3.6-5.4s1.6-5.4,3.6-5.4h46.6c2,0,3.6,2.4,3.6,5.4S194.6,44.4,192.6,44.4"/>
<path class="st0" d="M1017.9,0.4c-1.1-0.2-2.2-0.4-3.3-0.4H13.7C6.3,0,0.3,5.3,0.3,11.9v539.8c0,6.6,6,11.9,13.4,11.9h1000.8
	c1.2,0,2.3-0.1,3.3-0.4V0.4z"/>
</svg>
