<?xml version="1.0" encoding="UTF-8" standalone="no"?>
<!DOCTYPE svg PUBLIC "-//W3C//DTD SVG 1.1//EN" "http://www.w3.org/Graphics/SVG/1.1/DTD/svg11.dtd">
<svg width="100%" height="100%" viewBox="0 0 1920 1080" version="1.1" xmlns="http://www.w3.org/2000/svg" xmlns:xlink="http://www.w3.org/1999/xlink" xml:space="preserve" xmlns:serif="http://www.serif.com/" style="fill-rule:evenodd;clip-rule:evenodd;stroke-miterlimit:10;">
    <g transform="matrix(3.20442,0,0,2.92219,594.725,111.747)">
        <path d="M0,0L499.369,0" style="fill:none;stroke:rgb(222,216,213);stroke-width:0.64px;"/>
    </g>
    <g transform="matrix(3.20442,0,0,2.92219,2174.02,16.0891)">
        <path d="M0,308.965L-486.326,308.965C-489.928,308.965 -492.848,306.045 -492.848,302.444L-492.848,6.521C-492.848,2.92 -489.928,0 -486.326,0L0,0C3.602,0 6.521,2.92 6.521,6.521L6.521,302.444C6.521,306.045 3.602,308.965 0,308.965Z" style="fill:none;stroke:rgb(222,216,213);stroke-width:0.64px;"/>
    </g>
    <g transform="matrix(3.20442,0,0,2.92219,700.184,64.8935)">
        <path d="M0,0C0,2.522 -2.045,4.568 -4.568,4.568C-7.091,4.568 -9.136,2.522 -9.136,0C-9.136,-2.523 -7.091,-4.568 -4.568,-4.568C-2.045,-4.568 0,-2.523 0,0" style="fill:rgb(255,177,165);fill-rule:nonzero;"/>
    </g>
    <g transform="matrix(3.20442,0,0,2.92219,757.071,64.8935)">
        <path d="M0,0C0,2.522 -2.045,4.568 -4.568,4.568C-7.091,4.568 -9.136,2.522 -9.136,0C-9.136,-2.523 -7.091,-4.568 -4.568,-4.568C-2.045,-4.568 0,-2.523 0,0" style="fill:rgb(234,210,84);fill-rule:nonzero;"/>
    </g>
    <g transform="matrix(3.20442,0,0,2.92219,813.957,64.8935)">
        <path d="M0,0C0,2.522 -2.045,4.568 -4.568,4.568C-7.091,4.568 -9.136,2.522 -9.136,0C-9.136,-2.523 -7.091,-4.568 -4.568,-4.568C-2.045,-4.568 0,-2.523 0,0" style="fill:rgb(0,133,123);fill-rule:nonzero;"/>
    </g>
    <g transform="matrix(1.53313,0,0,2.27031,919.839,56.2008)">
        <path d="M0,7.586L-49.215,7.586C-51.31,7.586 -53.008,5.888 -53.008,3.793C-53.008,1.698 -51.31,0 -49.215,0L0,0C2.095,0 3.793,1.698 3.793,3.793C3.793,5.888 2.095,7.586 0,7.586" style="fill:rgb(100,255,143);fill-rule:nonzero;"/>
    </g>
</svg>
