<svg id="Layer_1" data-name="Layer 1" xmlns="http://www.w3.org/2000/svg" viewBox="0 0 100.24 100"><defs><style>.cls-1{fill:#f0bc1b;}.cls-2{fill:#f16477;}.cls-3{fill:#f8dbd2;}.cls-4{fill:#fbcd59;}.cls-5{fill:#fff;}.cls-6{fill:#a1d2a2;}.cls-7{fill:#231f20;}</style></defs><path class="cls-1" d="M86.84,1.32a1.32,1.32,0,1,0,1.32,1.31A1.31,1.31,0,0,0,86.84,1.32Z" transform="translate(0.01 0.1)"/><path class="cls-2" d="M50.22-.1a50,50,0,1,0,50,50A50,50,0,0,0,50.22-.1Z" transform="translate(0.01 0.1)"/><path class="cls-1" d="M94.74,0A5.27,5.27,0,1,0,100,5.26,5.27,5.27,0,0,0,94.74,0Z" transform="translate(0.01 0.1)"/><path class="cls-3" d="M2.62,15.79a2.63,2.63,0,1,0,2.63,2.63A2.63,2.63,0,0,0,2.62,15.79Z" transform="translate(0.01 0.1)"/><path class="cls-4" d="M86.84,82.89a2.64,2.64,0,1,0,2.63,2.64A2.64,2.64,0,0,0,86.84,82.89ZM6.57,81.58a5.27,5.27,0,1,0,5.26,5.26A5.27,5.27,0,0,0,6.57,81.58Z" transform="translate(0.01 0.1)"/><path class="cls-3" d="M15.78,90.79a2.63,2.63,0,1,0,2.63,2.63A2.63,2.63,0,0,0,15.78,90.79Z" transform="translate(0.01 0.1)"/><path class="cls-5" d="M71.71,84.21A3.29,3.29,0,1,0,75,87.5,3.29,3.29,0,0,0,71.71,84.21ZM5.25,46.05a1.32,1.32,0,1,0,1.32,1.32A1.32,1.32,0,0,0,5.25,46.05Z" transform="translate(0.01 0.1)"/><path class="cls-1" d="M97.37,23.68A1.32,1.32,0,1,0,98.68,25,1.32,1.32,0,0,0,97.37,23.68Z" transform="translate(0.01 0.1)"/><path class="cls-5" d="M89.47,68.42a2.63,2.63,0,1,0,2.63,2.63A2.63,2.63,0,0,0,89.47,68.42Z" transform="translate(0.01 0.1)"/><path class="cls-6" d="M27.34,18.66,79,73.25l-7.27,6.87L20.07,25.53Z" transform="translate(0.01 0.1)"/><path class="cls-7" d="M78.45,74.06l-5.93,5.6-51-53.92,5.93-5.6,51,53.92m2.92.4L27.23,17.2l-8.6,8.14L72.77,82.6l8.6-8.14Z" transform="translate(0.01 0.1)"/><path class="cls-6" d="M20.71,74.49l51.75-55,7.28,6.85L28,81.34Z" transform="translate(0.01 0.1)"/><path class="cls-7" d="M72.35,21l5.94,5.59L28.1,79.88l-5.94-5.59L72.35,21m.21-2.92L19.26,74.68l8.62,8.12L81.19,26.19l-8.63-8.12Z" transform="translate(0.01 0.1)"/><path class="cls-7" d="M76.65,25.25l-43.31,46a.71.71,0,0,1-1,.14.72.72,0,0,1,.08-1l43.31-46a.67.67,0,1,1,1,.9ZM29.89,74.9,28.9,76a.71.71,0,0,1-1,.14.7.7,0,0,1,.08-1l1-1.06a.67.67,0,1,1,.95.9Z" transform="translate(0.01 0.1)"/><path class="cls-7" d="M66.36,70.08l-43.2-45.7a.67.67,0,1,1,1-.9l43.2,45.69a.67.67,0,1,1-1,.91Z" transform="translate(0.01 0.1)"/><path class="cls-7" d="M70.71,74.61l-.95-1.1c-.32-.36-.36-.75-.1-1s.64-.12,1,.24l.95,1.1c.31.36.35.76.09,1S71,75,70.71,74.61Z" transform="translate(0.01 0.1)"/></svg>