<svg id="Layer_1" data-name="Layer 1" xmlns="http://www.w3.org/2000/svg" viewBox="0 0 100.01 100"><defs><style>.cls-1{fill:#f0bc1b;}.cls-2{fill:#f16477;}.cls-3{fill:#f8dbd2;}.cls-4{fill:#fbcd59;}.cls-5{fill:#fff;}.cls-6{fill:#a1d2a2;}.cls-7{fill:#231f20;}</style></defs><path class="cls-1" d="M86.84,1.32a1.32,1.32,0,1,0,1.32,1.31A1.31,1.31,0,0,0,86.84,1.32Z" transform="translate(0.01)"/><path class="cls-2" d="M50,0a50,50,0,1,0,50,50A50,50,0,0,0,50,0Z" transform="translate(0.01)"/><path class="cls-1" d="M94.74,0A5.27,5.27,0,1,0,100,5.26,5.27,5.27,0,0,0,94.74,0Z" transform="translate(0.01)"/><path class="cls-3" d="M2.62,15.79a2.63,2.63,0,1,0,2.63,2.63A2.63,2.63,0,0,0,2.62,15.79Z" transform="translate(0.01)"/><path class="cls-4" d="M86.84,82.89a2.64,2.64,0,1,0,2.63,2.64A2.64,2.64,0,0,0,86.84,82.89ZM6.57,81.58a5.27,5.27,0,1,0,5.26,5.26A5.27,5.27,0,0,0,6.57,81.58Z" transform="translate(0.01)"/><path class="cls-3" d="M15.78,90.79a2.63,2.63,0,1,0,2.63,2.63A2.63,2.63,0,0,0,15.78,90.79Z" transform="translate(0.01)"/><path class="cls-5" d="M71.71,84.21A3.29,3.29,0,1,0,75,87.5,3.29,3.29,0,0,0,71.71,84.21ZM5.25,46.05a1.32,1.32,0,1,0,1.32,1.32A1.32,1.32,0,0,0,5.25,46.05Z" transform="translate(0.01)"/><path class="cls-1" d="M97.37,23.68A1.32,1.32,0,1,0,98.68,25,1.32,1.32,0,0,0,97.37,23.68Z" transform="translate(0.01)"/><path class="cls-5" d="M89.47,68.42a2.63,2.63,0,1,0,2.63,2.63A2.63,2.63,0,0,0,89.47,68.42Z" transform="translate(0.01)"/><path class="cls-6" d="M19.33,23.29H80.66v10H19.33Z" transform="translate(0.01)"/><path class="cls-7" d="M79.73,24.21v8.16H20.25V24.21H79.73m1.85-1.84H18.41V34.21H81.58V22.37Z" transform="translate(0.01)"/><path class="cls-6" d="M19.33,44.34H80.66v10H19.33Z" transform="translate(0.01)"/><path class="cls-7" d="M79.73,45.26v8.16H20.25V45.26H79.73m1.85-1.84H18.41V55.26H81.58V43.42Z" transform="translate(0.01)"/><path class="cls-6" d="M19.33,65.39H80.66v10H19.33Z" transform="translate(0.01)"/><path class="cls-7" d="M79.73,66.32v8.15H20.25V66.32H79.73m1.85-1.85H18.41V76.32H81.58V64.47ZM62.5,51.32H23A.66.66,0,1,1,23,50H62.5a.66.66,0,0,1,0,1.32Zm14.6,0H75.92a.66.66,0,0,1,0-1.32H77.1a.66.66,0,0,1,0,1.32Z" transform="translate(0.01)"/><path class="cls-7" d="M79.6,72.37H28.28a.66.66,0,1,1,0-1.32H79.6a.66.66,0,0,1,0,1.32Zm-55.4,0H23a.66.66,0,1,1,0-1.32H24.2a.66.66,0,1,1,0,1.32Z" transform="translate(0.01)"/><path class="cls-7" d="M71.71,30.26H20.39a.66.66,0,1,1,0-1.31H71.71a.66.66,0,1,1,0,1.31Z" transform="translate(0.01)"/><path class="cls-7" d="M77,30.26H75.79a.66.66,0,1,1,0-1.31H77a.66.66,0,1,1,0,1.31Z" transform="translate(0.01)"/><path class="cls-7" d="M72.23,51.32H67.76a.66.66,0,1,1,0-1.32h4.47a.66.66,0,0,1,0,1.32Z" transform="translate(0.01)"/></svg>