<svg viewBox="0 0 128 128" xmlns="http://www.w3.org/2000/svg" fill-rule="evenodd" clip-rule="evenodd" stroke-linejoin="round" stroke-miterlimit="1.414"><path d="M118.129 29.803c-4.178 1.876-8.633 3.113-13.273 3.71a23.23 23.23 0 0010.122-12.994c-4.445 2.714-9.362 4.631-14.598 5.69-4.24-4.59-10.265-7.44-16.825-7.44-12.76 0-23.025 10.573-23.025 23.526 0 1.865.144 3.657.524 5.365-19.155-.953-36.093-10.322-47.487-24.605-1.982 3.52-3.142 7.555-3.142 11.894 0 8.153 4.096 15.363 10.225 19.544-3.696-.063-7.33-1.174-10.41-2.892v.251c0 11.423 7.997 20.927 18.458 23.118-1.879.513-3.922.775-6.036.775-1.468 0-2.967-.094-4.363-.409 2.977 9.306 11.456 16.17 21.526 16.38-7.842 6.266-17.79 10.028-28.558 10.028-1.899 0-3.706-.083-5.512-.314 10.203 6.717 22.296 10.553 35.333 10.553 42.396 0 65.575-35.85 65.575-66.922 0-1.048-.031-2.043-.082-3.05 4.568-3.3 8.407-7.44 11.548-12.208" fill="#fff" fill-rule="nonzero"/></svg>