<?xml version="1.0" encoding="UTF-8" standalone="no"?>
<!DOCTYPE svg PUBLIC "-//W3C//DTD SVG 1.1//EN" "http://www.w3.org/Graphics/SVG/1.1/DTD/svg11.dtd">
<svg width="100%" height="100%" viewBox="0 0 128 128" version="1.1" xmlns="http://www.w3.org/2000/svg" xmlns:xlink="http://www.w3.org/1999/xlink" xml:space="preserve" xmlns:serif="http://www.serif.com/" style="fill-rule:evenodd;clip-rule:evenodd;stroke-linejoin:round;stroke-miterlimit:1.41421;">
    <g transform="matrix(10.2653,0,0,10.4794,118.129,100.948)">
        <path d="M0,-6.789C-0.407,-6.61 -0.841,-6.492 -1.293,-6.435C-0.828,-6.712 -0.474,-7.148 -0.307,-7.675C-0.74,-7.416 -1.219,-7.233 -1.729,-7.132C-2.142,-7.57 -2.729,-7.842 -3.368,-7.842C-4.611,-7.842 -5.611,-6.833 -5.611,-5.597C-5.611,-5.419 -5.597,-5.248 -5.56,-5.085C-7.426,-5.176 -9.076,-6.07 -10.186,-7.433C-10.379,-7.097 -10.492,-6.712 -10.492,-6.298C-10.492,-5.52 -10.093,-4.832 -9.496,-4.433C-9.856,-4.439 -10.21,-4.545 -10.51,-4.709L-10.51,-4.685C-10.51,-3.595 -9.731,-2.688 -8.712,-2.479C-8.895,-2.43 -9.094,-2.405 -9.3,-2.405C-9.443,-2.405 -9.589,-2.414 -9.725,-2.444C-9.435,-1.556 -8.609,-0.901 -7.628,-0.881C-8.392,-0.283 -9.361,0.076 -10.41,0.076C-10.595,0.076 -10.771,0.068 -10.947,0.046C-9.953,0.687 -8.775,1.053 -7.505,1.053C-3.375,1.053 -1.117,-2.368 -1.117,-5.333C-1.117,-5.433 -1.12,-5.528 -1.125,-5.624C-0.68,-5.939 -0.306,-6.334 0,-6.789" style="fill:white;fill-rule:nonzero;"/>
    </g>
</svg>
